<mxfile host="Electron" agent="Mozilla/5.0 (Windows NT 10.0; Win64; x64) AppleWebKit/537.36 (KHTML, like Gecko) draw.io/24.7.17 Chrome/128.0.6613.36 Electron/32.0.1 Safari/537.36" version="24.7.17">
  <diagram name="Page-1" id="DdY5NUspL_lN8guK_HOb">
    <mxGraphModel dx="2702" dy="1858" grid="0" gridSize="10" guides="1" tooltips="1" connect="1" arrows="1" fold="1" page="0" pageScale="1" pageWidth="850" pageHeight="1100" math="0" shadow="0">
      <root>
        <mxCell id="0" />
        <mxCell id="1" parent="0" />
        <mxCell id="rNE7SKPaytt8KXnb-XwP-1" value="" style="edgeStyle=none;curved=1;rounded=0;orthogonalLoop=1;jettySize=auto;html=1;fontSize=12;startSize=8;endSize=8;exitX=0.5;exitY=1;exitDx=0;exitDy=0;" edge="1" parent="1" source="rNE7SKPaytt8KXnb-XwP-17" target="rNE7SKPaytt8KXnb-XwP-5">
          <mxGeometry relative="1" as="geometry">
            <mxPoint x="61" y="-98" as="sourcePoint" />
            <mxPoint x="61" y="79" as="targetPoint" />
          </mxGeometry>
        </mxCell>
        <mxCell id="rNE7SKPaytt8KXnb-XwP-2" value="&lt;b&gt;start date&lt;br&gt;end date&lt;/b&gt;&lt;div&gt;&lt;b&gt;list of holiday days&lt;/b&gt;&lt;/div&gt;" style="edgeLabel;html=1;align=center;verticalAlign=middle;resizable=0;points=[];fontSize=12;" vertex="1" connectable="0" parent="rNE7SKPaytt8KXnb-XwP-1">
          <mxGeometry x="0.3605" y="-3" relative="1" as="geometry">
            <mxPoint as="offset" />
          </mxGeometry>
        </mxCell>
        <mxCell id="rNE7SKPaytt8KXnb-XwP-3" value="get work cycle configuration" style="rounded=0;whiteSpace=wrap;html=1;" vertex="1" parent="1">
          <mxGeometry x="166" y="-9" width="120" height="60" as="geometry" />
        </mxCell>
        <mxCell id="rNE7SKPaytt8KXnb-XwP-4" value="&lt;b&gt;by work cycle condiguration id&lt;/b&gt;" style="edgeStyle=none;curved=1;rounded=0;orthogonalLoop=1;jettySize=auto;html=1;fontSize=12;startSize=8;endSize=8;exitX=0.5;exitY=1;exitDx=0;exitDy=0;entryX=0.5;entryY=0;entryDx=0;entryDy=0;" edge="1" parent="1" source="rNE7SKPaytt8KXnb-XwP-5" target="rNE7SKPaytt8KXnb-XwP-10">
          <mxGeometry relative="1" as="geometry" />
        </mxCell>
        <mxCell id="rNE7SKPaytt8KXnb-XwP-5" value="create work cycle entity" style="rounded=0;whiteSpace=wrap;html=1;" vertex="1" parent="1">
          <mxGeometry x="1" y="126" width="120" height="60" as="geometry" />
        </mxCell>
        <mxCell id="rNE7SKPaytt8KXnb-XwP-6" value="&lt;h1 style=&quot;margin-top: 0px;&quot;&gt;&lt;font style=&quot;font-size: 13px; font-weight: normal;&quot;&gt;Front will calculate based on work cycle configuration the start and end date - NOT REQUIRED&lt;/font&gt;&lt;/h1&gt;" style="text;html=1;whiteSpace=wrap;overflow=hidden;rounded=0;" vertex="1" parent="1">
          <mxGeometry x="-272" y="-70" width="322" height="70" as="geometry" />
        </mxCell>
        <mxCell id="rNE7SKPaytt8KXnb-XwP-7" value="get work cycle configuration" style="rounded=0;whiteSpace=wrap;html=1;" vertex="1" parent="1">
          <mxGeometry x="286" y="266" width="120" height="60" as="geometry" />
        </mxCell>
        <mxCell id="rNE7SKPaytt8KXnb-XwP-8" value="&lt;b&gt;for each work cycle day&lt;/b&gt;" style="edgeStyle=none;curved=1;rounded=0;orthogonalLoop=1;jettySize=auto;html=1;fontSize=12;startSize=8;endSize=8;exitX=0.5;exitY=1;exitDx=0;exitDy=0;" edge="1" parent="1" source="rNE7SKPaytt8KXnb-XwP-5" target="rNE7SKPaytt8KXnb-XwP-14">
          <mxGeometry relative="1" as="geometry" />
        </mxCell>
        <mxCell id="rNE7SKPaytt8KXnb-XwP-9" value="create shifts" style="edgeLabel;html=1;align=center;verticalAlign=middle;resizable=0;points=[];fontSize=12;fontStyle=1" vertex="1" connectable="0" parent="rNE7SKPaytt8KXnb-XwP-8">
          <mxGeometry x="0.4911" y="1" relative="1" as="geometry">
            <mxPoint as="offset" />
          </mxGeometry>
        </mxCell>
        <mxCell id="rNE7SKPaytt8KXnb-XwP-10" value="find all shift configurations" style="rounded=0;whiteSpace=wrap;html=1;" vertex="1" parent="1">
          <mxGeometry x="-236.25" y="266" width="120" height="60" as="geometry" />
        </mxCell>
        <mxCell id="rNE7SKPaytt8KXnb-XwP-11" value="&lt;b&gt;by department id&lt;/b&gt;" style="endArrow=classic;startArrow=classic;html=1;rounded=0;fontSize=12;startSize=8;endSize=8;curved=1;exitX=0.5;exitY=1;exitDx=0;exitDy=0;entryX=0.5;entryY=0;entryDx=0;entryDy=0;" edge="1" parent="1" source="rNE7SKPaytt8KXnb-XwP-5" target="rNE7SKPaytt8KXnb-XwP-7">
          <mxGeometry width="50" height="50" relative="1" as="geometry">
            <mxPoint x="174" y="332" as="sourcePoint" />
            <mxPoint x="224" y="282" as="targetPoint" />
          </mxGeometry>
        </mxCell>
        <mxCell id="rNE7SKPaytt8KXnb-XwP-12" value="" style="edgeStyle=none;curved=1;rounded=0;orthogonalLoop=1;jettySize=auto;html=1;fontSize=12;startSize=8;endSize=8;" edge="1" parent="1" source="rNE7SKPaytt8KXnb-XwP-14" target="rNE7SKPaytt8KXnb-XwP-22">
          <mxGeometry relative="1" as="geometry" />
        </mxCell>
        <mxCell id="rNE7SKPaytt8KXnb-XwP-13" value="is Holiday" style="edgeLabel;html=1;align=center;verticalAlign=middle;resizable=0;points=[];fontSize=15;" vertex="1" connectable="0" parent="rNE7SKPaytt8KXnb-XwP-12">
          <mxGeometry x="-0.1816" y="2" relative="1" as="geometry">
            <mxPoint x="-48" y="2" as="offset" />
          </mxGeometry>
        </mxCell>
        <mxCell id="rNE7SKPaytt8KXnb-XwP-14" value="&lt;div&gt;findAll shift configuration by workday&lt;br&gt;Example: 1-&amp;gt;sunday, 8-&amp;gt;sunday&lt;br&gt;&lt;/div&gt;" style="rounded=0;whiteSpace=wrap;html=1;" vertex="1" parent="1">
          <mxGeometry x="-51.620000000000005" y="415" width="225.25" height="65" as="geometry" />
        </mxCell>
        <mxCell id="rNE7SKPaytt8KXnb-XwP-15" value="" style="endArrow=classic;startArrow=classic;html=1;rounded=0;fontSize=12;startSize=8;endSize=8;curved=1;exitX=0.5;exitY=1;exitDx=0;exitDy=0;entryX=0.423;entryY=0.017;entryDx=0;entryDy=0;entryPerimeter=0;" edge="1" parent="1" source="rNE7SKPaytt8KXnb-XwP-17" target="rNE7SKPaytt8KXnb-XwP-3">
          <mxGeometry width="50" height="50" relative="1" as="geometry">
            <mxPoint x="61" y="-98" as="sourcePoint" />
            <mxPoint x="195" y="18.5" as="targetPoint" />
          </mxGeometry>
        </mxCell>
        <mxCell id="rNE7SKPaytt8KXnb-XwP-16" value="&lt;b&gt;by department id&lt;/b&gt;" style="edgeLabel;html=1;align=center;verticalAlign=middle;resizable=0;points=[];fontSize=12;" vertex="1" connectable="0" parent="rNE7SKPaytt8KXnb-XwP-15">
          <mxGeometry x="0.0373" y="-2" relative="1" as="geometry">
            <mxPoint as="offset" />
          </mxGeometry>
        </mxCell>
        <mxCell id="rNE7SKPaytt8KXnb-XwP-17" value="&lt;b&gt;&lt;font style=&quot;font-size: 15px;&quot;&gt;Manager create work cycle&amp;nbsp;&lt;/font&gt;&lt;/b&gt;" style="shape=parallelogram;perimeter=parallelogramPerimeter;whiteSpace=wrap;html=1;fixedSize=1;align=center;" vertex="1" parent="1">
          <mxGeometry x="-51" y="-203" width="224.01" height="87" as="geometry" />
        </mxCell>
        <mxCell id="rNE7SKPaytt8KXnb-XwP-18" value="" style="edgeStyle=none;curved=1;rounded=0;orthogonalLoop=1;jettySize=auto;html=1;fontSize=12;startSize=8;endSize=8;" edge="1" parent="1" source="rNE7SKPaytt8KXnb-XwP-22" target="rNE7SKPaytt8KXnb-XwP-24">
          <mxGeometry relative="1" as="geometry" />
        </mxCell>
        <mxCell id="rNE7SKPaytt8KXnb-XwP-19" value="YES" style="edgeLabel;html=1;align=center;verticalAlign=middle;resizable=0;points=[];fontSize=12;" vertex="1" connectable="0" parent="rNE7SKPaytt8KXnb-XwP-18">
          <mxGeometry x="-0.1761" y="1" relative="1" as="geometry">
            <mxPoint y="-20" as="offset" />
          </mxGeometry>
        </mxCell>
        <mxCell id="rNE7SKPaytt8KXnb-XwP-20" value="" style="edgeStyle=none;curved=1;rounded=0;orthogonalLoop=1;jettySize=auto;html=1;fontSize=12;startSize=8;endSize=8;" edge="1" parent="1" source="rNE7SKPaytt8KXnb-XwP-22" target="rNE7SKPaytt8KXnb-XwP-26">
          <mxGeometry relative="1" as="geometry" />
        </mxCell>
        <mxCell id="rNE7SKPaytt8KXnb-XwP-21" value="NO" style="edgeLabel;html=1;align=center;verticalAlign=middle;resizable=0;points=[];fontSize=12;" vertex="1" connectable="0" parent="rNE7SKPaytt8KXnb-XwP-20">
          <mxGeometry x="-0.1236" relative="1" as="geometry">
            <mxPoint y="-24" as="offset" />
          </mxGeometry>
        </mxCell>
        <mxCell id="rNE7SKPaytt8KXnb-XwP-22" value="" style="rhombus;whiteSpace=wrap;html=1;rounded=0;" vertex="1" parent="1">
          <mxGeometry x="21.004999999999995" y="567" width="80" height="80" as="geometry" />
        </mxCell>
        <mxCell id="rNE7SKPaytt8KXnb-XwP-23" style="edgeStyle=orthogonalEdgeStyle;rounded=0;orthogonalLoop=1;jettySize=auto;html=1;entryX=1;entryY=0.5;entryDx=0;entryDy=0;fontSize=12;startSize=8;endSize=8;exitX=0.5;exitY=1;exitDx=0;exitDy=0;" edge="1" parent="1" source="rNE7SKPaytt8KXnb-XwP-24" target="rNE7SKPaytt8KXnb-XwP-30">
          <mxGeometry relative="1" as="geometry">
            <mxPoint x="312.0050000000001" y="649" as="sourcePoint" />
            <mxPoint x="266" y="1052" as="targetPoint" />
          </mxGeometry>
        </mxCell>
        <mxCell id="rNE7SKPaytt8KXnb-XwP-24" value="create one empty shift" style="whiteSpace=wrap;html=1;rounded=0;" vertex="1" parent="1">
          <mxGeometry x="205.01" y="577" width="133" height="60" as="geometry" />
        </mxCell>
        <mxCell id="rNE7SKPaytt8KXnb-XwP-25" value="" style="edgeStyle=none;curved=1;rounded=0;orthogonalLoop=1;jettySize=auto;html=1;fontSize=12;startSize=8;endSize=8;" edge="1" parent="1" source="rNE7SKPaytt8KXnb-XwP-26" target="rNE7SKPaytt8KXnb-XwP-28">
          <mxGeometry relative="1" as="geometry" />
        </mxCell>
        <mxCell id="rNE7SKPaytt8KXnb-XwP-26" value="calculate amount of shifts based amount of workres" style="whiteSpace=wrap;html=1;rounded=0;" vertex="1" parent="1">
          <mxGeometry x="-256" y="577" width="167" height="60" as="geometry" />
        </mxCell>
        <mxCell id="rNE7SKPaytt8KXnb-XwP-27" value="" style="edgeStyle=none;curved=1;rounded=0;orthogonalLoop=1;jettySize=auto;html=1;fontSize=12;startSize=8;endSize=8;" edge="1" parent="1" source="rNE7SKPaytt8KXnb-XwP-28" target="rNE7SKPaytt8KXnb-XwP-29">
          <mxGeometry relative="1" as="geometry" />
        </mxCell>
        <mxCell id="rNE7SKPaytt8KXnb-XwP-28" value="calculate date by configuration" style="whiteSpace=wrap;html=1;rounded=0;" vertex="1" parent="1">
          <mxGeometry x="-262" y="726" width="179" height="60" as="geometry" />
        </mxCell>
        <mxCell id="rNE7SKPaytt8KXnb-XwP-29" value="get start and end time" style="whiteSpace=wrap;html=1;rounded=0;" vertex="1" parent="1">
          <mxGeometry x="-256" y="866" width="167" height="60" as="geometry" />
        </mxCell>
        <mxCell id="rNE7SKPaytt8KXnb-XwP-30" value="save" style="whiteSpace=wrap;html=1;rounded=0;" vertex="1" parent="1">
          <mxGeometry x="-12" y="980" width="167" height="60" as="geometry" />
        </mxCell>
        <mxCell id="rNE7SKPaytt8KXnb-XwP-31" value="" style="endArrow=classic;html=1;rounded=0;fontSize=12;startSize=8;endSize=8;exitX=0.5;exitY=1;exitDx=0;exitDy=0;entryX=0;entryY=0.5;entryDx=0;entryDy=0;edgeStyle=orthogonalEdgeStyle;" edge="1" parent="1" source="rNE7SKPaytt8KXnb-XwP-29" target="rNE7SKPaytt8KXnb-XwP-30">
          <mxGeometry width="50" height="50" relative="1" as="geometry">
            <mxPoint x="-25" y="992" as="sourcePoint" />
            <mxPoint x="25" y="942" as="targetPoint" />
          </mxGeometry>
        </mxCell>
        <mxCell id="rNE7SKPaytt8KXnb-XwP-32" value="shift" style="swimlane;fontStyle=0;childLayout=stackLayout;horizontal=1;startSize=26;horizontalStack=0;resizeParent=1;resizeParentMax=0;resizeLast=0;collapsible=1;marginBottom=0;align=center;fontSize=14;" vertex="1" parent="1">
          <mxGeometry x="363" y="549" width="160" height="116" as="geometry" />
        </mxCell>
        <mxCell id="rNE7SKPaytt8KXnb-XwP-33" value="start 00:00:" style="text;strokeColor=none;fillColor=none;spacingLeft=4;spacingRight=4;overflow=hidden;rotatable=0;points=[[0,0.5],[1,0.5]];portConstraint=eastwest;fontSize=12;whiteSpace=wrap;html=1;" vertex="1" parent="rNE7SKPaytt8KXnb-XwP-32">
          <mxGeometry y="26" width="160" height="30" as="geometry" />
        </mxCell>
        <mxCell id="rNE7SKPaytt8KXnb-XwP-34" value="end 23:59" style="text;strokeColor=none;fillColor=none;spacingLeft=4;spacingRight=4;overflow=hidden;rotatable=0;points=[[0,0.5],[1,0.5]];portConstraint=eastwest;fontSize=12;whiteSpace=wrap;html=1;" vertex="1" parent="rNE7SKPaytt8KXnb-XwP-32">
          <mxGeometry y="56" width="160" height="30" as="geometry" />
        </mxCell>
        <mxCell id="rNE7SKPaytt8KXnb-XwP-35" value="day_off: true" style="text;strokeColor=none;fillColor=none;spacingLeft=4;spacingRight=4;overflow=hidden;rotatable=0;points=[[0,0.5],[1,0.5]];portConstraint=eastwest;fontSize=12;whiteSpace=wrap;html=1;" vertex="1" parent="rNE7SKPaytt8KXnb-XwP-32">
          <mxGeometry y="86" width="160" height="30" as="geometry" />
        </mxCell>
        <mxCell id="rNE7SKPaytt8KXnb-XwP-36" value="new boolean:&lt;br&gt;day_off" style="rounded=1;arcSize=10;whiteSpace=wrap;html=1;align=center;fontStyle=1" vertex="1" parent="1">
          <mxGeometry x="367" y="468" width="138" height="63" as="geometry" />
        </mxCell>
        <mxCell id="rNE7SKPaytt8KXnb-XwP-39" value="" style="edgeStyle=none;curved=1;rounded=0;orthogonalLoop=1;jettySize=auto;html=1;fontSize=12;startSize=8;endSize=8;exitX=0.5;exitY=1;exitDx=0;exitDy=0;" edge="1" parent="1" source="rNE7SKPaytt8KXnb-XwP-41" target="rNE7SKPaytt8KXnb-XwP-38">
          <mxGeometry relative="1" as="geometry" />
        </mxCell>
        <mxCell id="rNE7SKPaytt8KXnb-XwP-40" value="&lt;b&gt;by work_cycle_id&lt;/b&gt;" style="edgeLabel;html=1;align=center;verticalAlign=middle;resizable=0;points=[];fontSize=12;" vertex="1" connectable="0" parent="rNE7SKPaytt8KXnb-XwP-39">
          <mxGeometry x="-0.2507" y="-2" relative="1" as="geometry">
            <mxPoint x="-2" y="16" as="offset" />
          </mxGeometry>
        </mxCell>
        <mxCell id="rNE7SKPaytt8KXnb-XwP-42" value="" style="edgeStyle=none;curved=1;rounded=0;orthogonalLoop=1;jettySize=auto;html=1;fontSize=12;startSize=8;endSize=8;" edge="1" parent="1" source="rNE7SKPaytt8KXnb-XwP-37" target="rNE7SKPaytt8KXnb-XwP-41">
          <mxGeometry relative="1" as="geometry" />
        </mxCell>
        <mxCell id="rNE7SKPaytt8KXnb-XwP-43" value="&lt;b&gt;by department_id&lt;/b&gt;" style="edgeLabel;html=1;align=center;verticalAlign=middle;resizable=0;points=[];fontSize=12;" vertex="1" connectable="0" parent="rNE7SKPaytt8KXnb-XwP-42">
          <mxGeometry x="-0.2132" y="1" relative="1" as="geometry">
            <mxPoint as="offset" />
          </mxGeometry>
        </mxCell>
        <mxCell id="rNE7SKPaytt8KXnb-XwP-37" value="&lt;b&gt;&lt;font style=&quot;font-size: 15px;&quot;&gt;User choose availability&lt;/font&gt;&lt;/b&gt;" style="shape=parallelogram;perimeter=parallelogramPerimeter;whiteSpace=wrap;html=1;fixedSize=1;align=center;" vertex="1" parent="1">
          <mxGeometry x="-99" y="1204" width="224.01" height="87" as="geometry" />
        </mxCell>
        <mxCell id="rNE7SKPaytt8KXnb-XwP-48" value="" style="edgeStyle=none;curved=1;rounded=0;orthogonalLoop=1;jettySize=auto;html=1;fontSize=12;startSize=8;endSize=8;entryX=0.5;entryY=0;entryDx=0;entryDy=0;exitX=0.5;exitY=1;exitDx=0;exitDy=0;" edge="1" parent="1" source="rNE7SKPaytt8KXnb-XwP-66" target="rNE7SKPaytt8KXnb-XwP-68">
          <mxGeometry relative="1" as="geometry">
            <mxPoint x="-116" y="1692" as="sourcePoint" />
            <mxPoint x="13.00500000000011" y="1693" as="targetPoint" />
          </mxGeometry>
        </mxCell>
        <mxCell id="rNE7SKPaytt8KXnb-XwP-65" style="edgeStyle=none;curved=1;rounded=0;orthogonalLoop=1;jettySize=auto;html=1;fontSize=12;startSize=8;endSize=8;entryX=0.5;entryY=0;entryDx=0;entryDy=0;exitX=0.5;exitY=1;exitDx=0;exitDy=0;" edge="1" parent="1" source="rNE7SKPaytt8KXnb-XwP-38" target="rNE7SKPaytt8KXnb-XwP-66">
          <mxGeometry relative="1" as="geometry">
            <mxPoint x="166.40008544921875" y="1675.9999084472656" as="targetPoint" />
          </mxGeometry>
        </mxCell>
        <mxCell id="rNE7SKPaytt8KXnb-XwP-67" value="by user_id and shift_id" style="edgeLabel;html=1;align=center;verticalAlign=middle;resizable=0;points=[];fontSize=12;fontStyle=1" vertex="1" connectable="0" parent="rNE7SKPaytt8KXnb-XwP-65">
          <mxGeometry x="-0.0568" relative="1" as="geometry">
            <mxPoint as="offset" />
          </mxGeometry>
        </mxCell>
        <mxCell id="rNE7SKPaytt8KXnb-XwP-38" value="get all active shifts" style="whiteSpace=wrap;html=1;" vertex="1" parent="1">
          <mxGeometry x="-71" y="1533" width="168.01" height="60" as="geometry" />
        </mxCell>
        <mxCell id="rNE7SKPaytt8KXnb-XwP-41" value="get active work cycle" style="whiteSpace=wrap;html=1;imageWidth=24;strokeColor=default;align=center;verticalAlign=middle;fontFamily=Helvetica;fontSize=12;fontColor=default;fillColor=default;" vertex="1" parent="1">
          <mxGeometry x="-71" y="1380" width="168.01" height="60" as="geometry" />
        </mxCell>
        <mxCell id="rNE7SKPaytt8KXnb-XwP-45" value="sql query to find active work cycle:JOIN&amp;nbsp;&lt;br style=&quot;font-size: 13px;&quot;&gt;&lt;span style=&quot;white-space: pre; font-size: 13px;&quot;&gt;&#x9;&lt;/span&gt;1.department&lt;br style=&quot;font-size: 13px;&quot;&gt;&lt;span style=&quot;white-space: pre; font-size: 13px;&quot;&gt;&#x9;&lt;/span&gt;2.work_cycle_configuration&lt;br style=&quot;font-size: 13px;&quot;&gt;&lt;span style=&quot;white-space: pre; font-size: 13px;&quot;&gt;&#x9;&lt;/span&gt;3.work_cycle" style="text;html=1;align=left;verticalAlign=middle;whiteSpace=wrap;rounded=0;fontSize=13;" vertex="1" parent="1">
          <mxGeometry x="-338" y="1324" width="236.25" height="86" as="geometry" />
        </mxCell>
        <mxCell id="rNE7SKPaytt8KXnb-XwP-46" value="&lt;div style=&quot;direction: rtl; font-size: 12px;&quot;&gt;&lt;span style=&quot;background-color: initial; font-size: 12px;&quot;&gt;consider&lt;/span&gt;&lt;/div&gt;**add the department_id to work_cycle table**" style="text;html=1;align=center;verticalAlign=middle;whiteSpace=wrap;rounded=0;fontSize=12;fontStyle=1" vertex="1" parent="1">
          <mxGeometry x="-393.75" y="1247" width="294.75" height="77" as="geometry" />
        </mxCell>
        <mxCell id="rNE7SKPaytt8KXnb-XwP-50" value="" style="edgeStyle=none;curved=1;rounded=0;orthogonalLoop=1;jettySize=auto;html=1;fontSize=12;startSize=8;endSize=8;exitX=0.5;exitY=1;exitDx=0;exitDy=0;" edge="1" parent="1" source="rNE7SKPaytt8KXnb-XwP-68" target="rNE7SKPaytt8KXnb-XwP-52">
          <mxGeometry relative="1" as="geometry">
            <mxPoint x="3.9950000000001094" y="1822" as="sourcePoint" />
            <mxPoint x="3.9950000000001094" y="1914" as="targetPoint" />
          </mxGeometry>
        </mxCell>
        <mxCell id="rNE7SKPaytt8KXnb-XwP-51" value="&lt;div style=&quot;direction: ltr;&quot;&gt;&lt;b&gt;foreach availability&lt;/b&gt;&lt;/div&gt;" style="edgeLabel;html=1;align=center;verticalAlign=middle;resizable=0;points=[];fontSize=12;" vertex="1" connectable="0" parent="rNE7SKPaytt8KXnb-XwP-50">
          <mxGeometry x="-0.2233" relative="1" as="geometry">
            <mxPoint y="3" as="offset" />
          </mxGeometry>
        </mxCell>
        <mxCell id="rNE7SKPaytt8KXnb-XwP-56" value="" style="edgeStyle=none;curved=1;rounded=0;orthogonalLoop=1;jettySize=auto;html=1;fontSize=12;startSize=8;endSize=8;" edge="1" parent="1" source="rNE7SKPaytt8KXnb-XwP-52" target="rNE7SKPaytt8KXnb-XwP-55">
          <mxGeometry relative="1" as="geometry" />
        </mxCell>
        <mxCell id="rNE7SKPaytt8KXnb-XwP-57" value="&lt;b&gt;YES&lt;/b&gt;" style="edgeLabel;html=1;align=center;verticalAlign=middle;resizable=0;points=[];fontSize=12;" vertex="1" connectable="0" parent="rNE7SKPaytt8KXnb-XwP-56">
          <mxGeometry x="-0.1896" y="3" relative="1" as="geometry">
            <mxPoint x="4" y="-13" as="offset" />
          </mxGeometry>
        </mxCell>
        <mxCell id="rNE7SKPaytt8KXnb-XwP-59" value="" style="edgeStyle=none;curved=1;rounded=0;orthogonalLoop=1;jettySize=auto;html=1;fontSize=12;startSize=8;endSize=8;" edge="1" parent="1" source="rNE7SKPaytt8KXnb-XwP-52" target="rNE7SKPaytt8KXnb-XwP-58">
          <mxGeometry relative="1" as="geometry" />
        </mxCell>
        <mxCell id="rNE7SKPaytt8KXnb-XwP-60" value="&lt;b&gt;NO&lt;/b&gt;" style="edgeLabel;html=1;align=center;verticalAlign=middle;resizable=0;points=[];fontSize=12;" vertex="1" connectable="0" parent="rNE7SKPaytt8KXnb-XwP-59">
          <mxGeometry x="-0.2531" y="-3" relative="1" as="geometry">
            <mxPoint x="-11" y="-18" as="offset" />
          </mxGeometry>
        </mxCell>
        <mxCell id="rNE7SKPaytt8KXnb-XwP-52" value="is exist" style="rhombus;whiteSpace=wrap;html=1;fontSize=17;fontStyle=1" vertex="1" parent="1">
          <mxGeometry x="-41" y="2092" width="106.01" height="132" as="geometry" />
        </mxCell>
        <mxCell id="rNE7SKPaytt8KXnb-XwP-63" style="edgeStyle=orthogonalEdgeStyle;rounded=0;orthogonalLoop=1;jettySize=auto;html=1;entryX=1;entryY=0.5;entryDx=0;entryDy=0;fontSize=12;startSize=8;endSize=8;exitX=0.5;exitY=1;exitDx=0;exitDy=0;" edge="1" parent="1" source="rNE7SKPaytt8KXnb-XwP-55" target="rNE7SKPaytt8KXnb-XwP-61">
          <mxGeometry relative="1" as="geometry" />
        </mxCell>
        <mxCell id="rNE7SKPaytt8KXnb-XwP-55" value="&lt;span style=&quot;font-weight: normal;&quot;&gt;update active to true&lt;/span&gt;" style="whiteSpace=wrap;html=1;fontSize=12;fontStyle=1;" vertex="1" parent="1">
          <mxGeometry x="178.015" y="2128" width="120" height="60" as="geometry" />
        </mxCell>
        <mxCell id="rNE7SKPaytt8KXnb-XwP-62" value="" style="edgeStyle=orthogonalEdgeStyle;rounded=0;orthogonalLoop=1;jettySize=auto;html=1;fontSize=12;startSize=8;endSize=8;exitX=0.5;exitY=1;exitDx=0;exitDy=0;entryX=0;entryY=0.5;entryDx=0;entryDy=0;" edge="1" parent="1" source="rNE7SKPaytt8KXnb-XwP-58" target="rNE7SKPaytt8KXnb-XwP-61">
          <mxGeometry relative="1" as="geometry" />
        </mxCell>
        <mxCell id="rNE7SKPaytt8KXnb-XwP-58" value="create new Availability" style="whiteSpace=wrap;html=1;fontSize=12;fontStyle=0;" vertex="1" parent="1">
          <mxGeometry x="-319" y="2117.5" width="165" height="81" as="geometry" />
        </mxCell>
        <mxCell id="rNE7SKPaytt8KXnb-XwP-61" value="save" style="whiteSpace=wrap;html=1;fontSize=12;fontStyle=0;" vertex="1" parent="1">
          <mxGeometry x="-60.00000000000001" y="2305" width="165" height="81" as="geometry" />
        </mxCell>
        <mxCell id="rNE7SKPaytt8KXnb-XwP-66" value="find all active availabilities" style="rounded=0;whiteSpace=wrap;html=1;" vertex="1" parent="1">
          <mxGeometry x="-71" y="1702" width="168.01" height="60" as="geometry" />
        </mxCell>
        <mxCell id="rNE7SKPaytt8KXnb-XwP-68" value="&lt;font style=&quot;font-size: 16px;&quot;&gt;user save availabilities&lt;/font&gt;" style="shape=parallelogram;perimeter=parallelogramPerimeter;whiteSpace=wrap;html=1;fixedSize=1;align=center;fontStyle=1" vertex="1" parent="1">
          <mxGeometry x="-106.49" y="1862" width="239" height="75" as="geometry" />
        </mxCell>
        <mxCell id="rNE7SKPaytt8KXnb-XwP-69" value="&lt;div style=&quot;direction: rtl; font-size: 12px;&quot;&gt;&lt;span style=&quot;background-color: initial; font-size: 12px;&quot;&gt;consider&amp;nbsp;&lt;/span&gt;&lt;span style=&quot;background-color: initial;&quot;&gt;changing&amp;nbsp;&lt;/span&gt;&lt;/div&gt;&lt;div style=&quot;direction: rtl; font-size: 12px;&quot;&gt;&lt;span style=&quot;background-color: initial;&quot;&gt;primary key to multi key with&amp;nbsp; user_id and shift_id&lt;/span&gt;&lt;/div&gt;" style="text;html=1;align=center;verticalAlign=middle;whiteSpace=wrap;rounded=0;fontSize=12;fontStyle=1" vertex="1" parent="1">
          <mxGeometry x="72.25" y="2040.5" width="298.75" height="77" as="geometry" />
        </mxCell>
      </root>
    </mxGraphModel>
  </diagram>
</mxfile>
